<svg width="391" height="480" viewBox="0 0 391 480" fill="none" xmlns="http://www.w3.org/2000/svg">
<rect x="99.7132" y="0.60408" width="299" height="419" rx="19.5" transform="rotate(13.6823 99.7132 0.60408)" fill="white"/>
<rect x="99.7132" y="0.60408" width="299" height="419" rx="19.5" transform="rotate(13.6823 99.7132 0.60408)" stroke="#1A1A1A"/>
<rect x="99.7132" y="0.60408" width="299" height="419" rx="19.5" transform="rotate(13.6823 99.7132 0.60408)" stroke="white" stroke-opacity="0.8"/>
<rect x="75.7406" y="12.4187" width="299" height="419" rx="19.5" transform="rotate(7.53696 75.7406 12.4187)" fill="white"/>
<rect x="75.7406" y="12.4187" width="299" height="419" rx="19.5" transform="rotate(7.53696 75.7406 12.4187)" stroke="#1A1A1A"/>
<rect x="75.7406" y="12.4187" width="299" height="419" rx="19.5" transform="rotate(7.53696 75.7406 12.4187)" stroke="white" stroke-opacity="0.8"/>
<rect x="48.2812" y="36.5" width="299" height="419" rx="19.5" fill="white"/>
<rect x="48.2812" y="36.5" width="299" height="419" rx="19.5" stroke="#1A1A1A"/>
<rect x="48.2812" y="36.5" width="299" height="419" rx="19.5" stroke="white" stroke-opacity="0.2"/>
</svg>
