<svg width="173" height="36" viewBox="0 0 173 36" fill="none" xmlns="http://www.w3.org/2000/svg">
<path d="M36 18C36 27.9411 27.9411 36 18 36C8.05887 36 0 27.9411 0 18C0 8.05887 8.05887 0 18 0C27.9411 0 36 8.05887 36 18Z" fill="white"/>
<path fill-rule="evenodd" clip-rule="evenodd" d="M26.4004 9.60039H9.60044C8.9377 9.60039 8.40044 10.1376 8.40044 10.8004V21.6004C8.40044 22.2631 8.9377 22.8004 9.60044 22.8004H26.4004C27.0632 22.8004 27.6004 22.2631 27.6004 21.6004V10.8004C27.6004 10.1376 27.0632 9.60039 26.4004 9.60039ZM9.60044 8.40039C8.27496 8.40039 7.20044 9.47491 7.20044 10.8004V21.6004C7.20044 22.9259 8.27496 24.0004 9.60044 24.0004H26.4004C27.7259 24.0004 28.8004 22.9259 28.8004 21.6004V10.8004C28.8004 9.47491 27.7259 8.40039 26.4004 8.40039H9.60044Z" fill="#006BE5"/>
<path fill-rule="evenodd" clip-rule="evenodd" d="M18.0001 23.3984C18.3315 23.3984 18.6001 23.6671 18.6001 23.9984V27.5984C18.6001 27.9298 18.3315 28.1984 18.0001 28.1984C17.6688 28.1984 17.4001 27.9298 17.4001 27.5984V23.9984C17.4001 23.6671 17.6688 23.3984 18.0001 23.3984Z" fill="#006BE5"/>
<path fill-rule="evenodd" clip-rule="evenodd" d="M23.3987 27.6C23.3987 27.9314 23.1301 28.2 22.7987 28.2L13.1987 28.2C12.8673 28.2 12.5987 27.9314 12.5987 27.6C12.5987 27.2686 12.8673 27 13.1987 27L22.7987 27C23.1301 27 23.3987 27.2686 23.3987 27.6Z" fill="#006BE5"/>
<path fill-rule="evenodd" clip-rule="evenodd" d="M7.7981 20.399C7.7981 20.0677 8.06672 19.799 8.3981 19.799L27.5981 19.799C27.9295 19.799 28.1981 20.0677 28.1981 20.399C28.1981 20.7304 27.9295 20.999 27.5981 20.999L8.3981 20.999C8.06672 20.999 7.7981 20.7304 7.7981 20.399Z" fill="#006BE5"/>
<path fill-rule="evenodd" clip-rule="evenodd" d="M15.5974 17.2485C15.1518 17.838 14.9988 18.5602 14.9988 19.0295V19.201C14.9988 19.5323 15.2675 19.801 15.5988 19.801H20.3988C20.7302 19.801 20.9988 19.5323 20.9988 19.201V19.0295C20.9988 18.5602 20.8458 17.838 20.4002 17.2485C19.9763 16.6878 19.2553 16.201 17.9988 16.201C16.7423 16.201 16.0213 16.6878 15.5974 17.2485ZM14.6402 16.5249C15.2963 15.657 16.3753 15.001 17.9988 15.001C19.6223 15.001 20.7013 15.657 21.3574 16.5249C21.9918 17.364 22.1988 18.356 22.1988 19.0295V19.201C22.1988 20.1951 21.3929 21.001 20.3988 21.001H15.5988C14.6047 21.001 13.7988 20.1951 13.7988 19.201V19.0295C13.7988 18.356 14.0058 17.364 14.6402 16.5249Z" fill="#006BE5"/>
<path fill-rule="evenodd" clip-rule="evenodd" d="M18.0006 14.3998C18.6633 14.3998 19.2006 13.8625 19.2006 13.1998C19.2006 12.5371 18.6633 11.9998 18.0006 11.9998C17.3378 11.9998 16.8006 12.5371 16.8006 13.1998C16.8006 13.8625 17.3378 14.3998 18.0006 14.3998ZM18.0006 15.5998C19.3261 15.5998 20.4006 14.5253 20.4006 13.1998C20.4006 11.8743 19.3261 10.7998 18.0006 10.7998C16.6751 10.7998 15.6006 11.8743 15.6006 13.1998C15.6006 14.5253 16.6751 15.5998 18.0006 15.5998Z" fill="#006BE5"/>
<path d="M62.8595 28.2058C63.0035 28.7578 62.9195 29.2618 62.6075 29.7178C62.2955 30.1498 61.8515 30.3658 61.2755 30.3658H60.2315C59.8955 30.3658 59.5715 30.2578 59.2595 30.0418C58.9715 29.8258 58.7675 29.5618 58.6475 29.2498L57.2795 25.1098C57.1835 24.7978 56.9795 24.6418 56.6675 24.6418H50.5115C50.1995 24.6418 49.9955 24.7978 49.8995 25.1098L48.5315 29.2498C48.4115 29.5618 48.2075 29.8258 47.9195 30.0418C47.6315 30.2578 47.3075 30.3658 46.9475 30.3658H45.9035C45.3275 30.3658 44.8835 30.1498 44.5715 29.7178C44.2355 29.2378 44.1635 28.7338 44.3555 28.2058L51.3395 7.14579C51.4595 6.80979 51.6515 6.54579 51.9155 6.35379C52.2035 6.13779 52.5155 6.02979 52.8515 6.02979H54.3275C54.6635 6.02979 54.9755 6.13779 55.2635 6.35379C55.5515 6.54579 55.7435 6.80979 55.8395 7.14579L62.8595 28.2058ZM55.5875 19.9258L53.7875 14.4178C53.6675 14.2498 53.5355 14.2498 53.3915 14.4178L51.5915 19.9258C51.5435 20.0458 51.5555 20.1538 51.6275 20.2498C51.6995 20.3458 51.7955 20.3938 51.9155 20.3938H55.2635C55.3835 20.3938 55.4795 20.3458 55.5515 20.2498C55.6235 20.1538 55.6355 20.0458 55.5875 19.9258Z" fill="white"/>
<path d="M71.1982 15.8338C71.1982 16.5778 70.9342 17.2138 70.4062 17.7418C69.8782 18.2698 69.2422 18.5338 68.4982 18.5338C67.7542 18.5338 67.1182 18.2698 66.5902 17.7418C66.0622 17.2138 65.7982 16.5778 65.7982 15.8338C65.7982 15.0898 66.0622 14.4538 66.5902 13.9258C67.1182 13.3978 67.7542 13.1338 68.4982 13.1338C69.2422 13.1338 69.8782 13.3978 70.4062 13.9258C70.9342 14.4538 71.1982 15.0898 71.1982 15.8338ZM71.1982 23.2498C71.1982 23.9938 70.9342 24.6418 70.4062 25.1938C69.8782 25.7218 69.2422 25.9858 68.4982 25.9858C67.7542 25.9858 67.1182 25.7218 66.5902 25.1938C66.0622 24.6418 65.7982 23.9938 65.7982 23.2498C65.7982 22.5058 66.0622 21.8698 66.5902 21.3418C67.1182 20.8138 67.7542 20.5498 68.4982 20.5498C69.2422 20.5498 69.8782 20.8138 70.4062 21.3418C70.9342 21.8698 71.1982 22.5058 71.1982 23.2498Z" fill="white"/>
<path d="M84.8574 28.7098C84.8574 29.1658 84.7014 29.5618 84.3894 29.8978C84.0774 30.2098 83.6934 30.3658 83.2374 30.3658H78.1974C77.0934 30.3658 76.1454 29.9818 75.3534 29.2138C74.5854 28.4218 74.2014 27.4618 74.2014 26.3338V7.68579C74.2014 7.20579 74.3574 6.80979 74.6694 6.49779C74.9814 6.18579 75.3654 6.02979 75.8214 6.02979H76.8294C77.2854 6.02979 77.6694 6.18579 77.9814 6.49779C78.3174 6.80979 78.4854 7.20579 78.4854 7.68579V11.2858C78.4854 11.5738 78.6414 11.7178 78.9534 11.7178H83.2374C83.6934 11.7178 84.0774 11.8858 84.3894 12.2218C84.7014 12.5338 84.8574 12.9298 84.8574 13.4098V14.3818C84.8574 14.7898 84.7014 15.1738 84.3894 15.5338C84.0294 15.8458 83.6454 16.0018 83.2374 16.0018H78.9534C78.6414 16.0018 78.4854 16.1698 78.4854 16.5058V25.6498C78.4854 25.9618 78.6414 26.1178 78.9534 26.1178H83.2374C83.6934 26.1178 84.0774 26.2738 84.3894 26.5858C84.7014 26.8978 84.8574 27.2938 84.8574 27.7738V28.7098Z" fill="white"/>
<path d="M100.803 19.6738C100.803 20.3938 100.623 21.0658 100.263 21.6898C99.9029 22.2898 99.4229 22.7818 98.8229 23.1658C98.2229 23.5258 97.5509 23.7058 96.8069 23.7058H92.5589C92.4389 23.7058 92.3189 23.7538 92.1989 23.8498C92.1029 23.9218 92.0549 24.0178 92.0549 24.1378V25.6498C92.0549 25.7698 92.1029 25.8778 92.1989 25.9738C92.3189 26.0698 92.4389 26.1178 92.5589 26.1178H96.8069C97.2629 26.1178 97.6469 26.2738 97.9589 26.5858C98.2949 26.8978 98.4629 27.2938 98.4629 27.7738V28.7098C98.4629 29.1658 98.2949 29.5618 97.9589 29.8978C97.6469 30.2098 97.2629 30.3658 96.8069 30.3658H91.8029C90.6989 30.3658 89.7509 29.9818 88.9589 29.2138C88.1669 28.4218 87.7709 27.4618 87.7709 26.3338V15.7498C87.7709 15.0058 87.9509 14.3338 88.3109 13.7338C88.6949 13.1338 89.1869 12.6538 89.7869 12.2938C90.3869 11.9098 91.0589 11.7178 91.8029 11.7178H96.8069C97.5509 11.7178 98.2229 11.9098 98.8229 12.2938C99.4229 12.6538 99.9029 13.1338 100.263 13.7338C100.623 14.3338 100.803 15.0058 100.803 15.7498V19.6738ZM96.5549 18.9538V16.5058C96.5549 16.3618 96.4949 16.2418 96.3749 16.1458C96.2789 16.0498 96.1709 16.0018 96.0509 16.0018H92.5589C92.4389 16.0018 92.3189 16.0498 92.1989 16.1458C92.1029 16.2418 92.0549 16.3618 92.0549 16.5058V18.9538C92.0549 19.0498 92.1029 19.1458 92.1989 19.2418C92.3189 19.3378 92.4389 19.3858 92.5589 19.3858H96.0509C96.1709 19.3858 96.2789 19.3378 96.3749 19.2418C96.4949 19.1458 96.5549 19.0498 96.5549 18.9538Z" fill="white"/>
<path d="M116.764 28.7098C116.764 29.1658 116.608 29.5618 116.296 29.8978C115.984 30.2098 115.6 30.3658 115.144 30.3658H114.136C113.68 30.3658 113.296 30.2098 112.984 29.8978C112.672 29.5618 112.516 29.1658 112.516 28.7098V16.5058C112.516 16.3618 112.456 16.2418 112.336 16.1458C112.24 16.0498 112.132 16.0018 112.012 16.0018H108.52C108.4 16.0018 108.28 16.0498 108.16 16.1458C108.064 16.2418 108.016 16.3618 108.016 16.5058V28.7098C108.016 29.1658 107.86 29.5618 107.548 29.8978C107.236 30.2098 106.852 30.3658 106.396 30.3658H105.388C104.932 30.3658 104.536 30.2098 104.2 29.8978C103.888 29.5618 103.732 29.1658 103.732 28.7098V15.7498C103.732 15.0058 103.912 14.3338 104.272 13.7338C104.656 13.1098 105.148 12.6178 105.748 12.2578C106.348 11.8978 107.02 11.7178 107.764 11.7178H112.768C113.512 11.7178 114.184 11.8978 114.784 12.2578C115.384 12.6178 115.864 13.1098 116.224 13.7338C116.584 14.3338 116.764 15.0058 116.764 15.7498V28.7098Z" fill="white"/>
<path d="M132.725 26.3338C132.725 27.4618 132.329 28.4218 131.537 29.2138C130.769 29.9818 129.833 30.3658 128.729 30.3658H123.725C122.621 30.3658 121.673 29.9818 120.881 29.2138C120.089 28.4218 119.693 27.4618 119.693 26.3338V24.8578C119.693 24.4018 119.849 24.0178 120.161 23.7058C120.497 23.3698 120.893 23.2018 121.349 23.2018H122.357C122.813 23.2018 123.197 23.3698 123.509 23.7058C123.821 24.0178 123.977 24.4018 123.977 24.8578V25.6498C123.977 25.9618 124.145 26.1178 124.481 26.1178H127.973C128.093 26.1178 128.201 26.0698 128.297 25.9738C128.417 25.8778 128.477 25.7698 128.477 25.6498V24.3178C128.477 24.1258 128.381 23.9938 128.189 23.9218L122.969 22.2658C122.009 21.9298 121.217 21.3538 120.593 20.5378C119.993 19.7218 119.693 18.7978 119.693 17.7658V15.7498C119.693 15.0058 119.873 14.3338 120.233 13.7338C120.617 13.1338 121.109 12.6538 121.709 12.2938C122.309 11.9098 122.981 11.7178 123.725 11.7178H128.729C129.473 11.7178 130.145 11.9098 130.745 12.2938C131.345 12.6538 131.825 13.1338 132.185 13.7338C132.545 14.3338 132.725 15.0058 132.725 15.7498V17.1898C132.725 17.6458 132.569 18.0418 132.257 18.3778C131.945 18.6898 131.561 18.8458 131.105 18.8458H130.097C129.641 18.8458 129.257 18.6898 128.945 18.3778C128.633 18.0418 128.477 17.6458 128.477 17.1898V16.5058C128.477 16.3618 128.417 16.2418 128.297 16.1458C128.201 16.0498 128.093 16.0018 127.973 16.0018H124.481C124.145 16.0018 123.977 16.1698 123.977 16.5058V17.7658C123.977 18.0058 124.073 18.1498 124.265 18.1978L129.485 19.8538C130.469 20.1658 131.249 20.7298 131.825 21.5458C132.425 22.3618 132.725 23.2858 132.725 24.3178V26.3338Z" fill="white"/>
<path d="M141.09 8.33379C141.09 9.07779 140.814 9.72579 140.262 10.2778C139.734 10.8058 139.11 11.0698 138.39 11.0698C137.646 11.0698 136.998 10.8058 136.446 10.2778C135.918 9.72579 135.654 9.07779 135.654 8.33379C135.654 7.61379 135.918 6.98979 136.446 6.46179C136.998 5.90979 137.646 5.63379 138.39 5.63379C139.11 5.63379 139.734 5.90979 140.262 6.46179C140.814 6.98979 141.09 7.61379 141.09 8.33379ZM140.514 28.7098C140.514 29.1658 140.346 29.5618 140.01 29.8978C139.698 30.2098 139.314 30.3658 138.858 30.3658H137.886C137.43 30.3658 137.034 30.2098 136.698 29.8978C136.386 29.5618 136.23 29.1658 136.23 28.7098V13.7698C136.23 13.3138 136.386 12.9298 136.698 12.6178C137.034 12.2818 137.43 12.1138 137.886 12.1138H138.858C139.314 12.1138 139.698 12.2818 140.01 12.6178C140.346 12.9298 140.514 13.3138 140.514 13.7698V28.7098Z" fill="white"/>
<path d="M157.018 26.3338C157.018 27.4618 156.622 28.4218 155.83 29.2138C155.062 29.9818 154.126 30.3658 153.022 30.3658H148.018C146.914 30.3658 145.966 29.9818 145.174 29.2138C144.382 28.4218 143.986 27.4618 143.986 26.3338V15.7498C143.986 15.0058 144.166 14.3338 144.526 13.7338C144.91 13.1098 145.402 12.6178 146.002 12.2578C146.602 11.8978 147.274 11.7178 148.018 11.7178H153.022C153.766 11.7178 154.438 11.8978 155.038 12.2578C155.638 12.6178 156.118 13.1098 156.478 13.7338C156.838 14.3338 157.018 15.0058 157.018 15.7498V26.3338ZM152.77 25.6498V16.5058C152.77 16.3618 152.71 16.2418 152.59 16.1458C152.494 16.0498 152.386 16.0018 152.266 16.0018H148.774C148.654 16.0018 148.534 16.0498 148.414 16.1458C148.318 16.2418 148.27 16.3618 148.27 16.5058V25.6498C148.27 25.7698 148.318 25.8778 148.414 25.9738C148.534 26.0698 148.654 26.1178 148.774 26.1178H152.266C152.386 26.1178 152.494 26.0698 152.59 25.9738C152.71 25.8778 152.77 25.7698 152.77 25.6498Z" fill="white"/>
<path d="M172.979 28.7098C172.979 29.1658 172.823 29.5618 172.511 29.8978C172.199 30.2098 171.815 30.3658 171.359 30.3658H170.351C169.895 30.3658 169.511 30.2098 169.199 29.8978C168.887 29.5618 168.731 29.1658 168.731 28.7098V16.5058C168.731 16.3618 168.671 16.2418 168.551 16.1458C168.455 16.0498 168.347 16.0018 168.227 16.0018H164.735C164.615 16.0018 164.495 16.0498 164.375 16.1458C164.279 16.2418 164.231 16.3618 164.231 16.5058V28.7098C164.231 29.1658 164.075 29.5618 163.763 29.8978C163.451 30.2098 163.067 30.3658 162.611 30.3658H161.603C161.147 30.3658 160.751 30.2098 160.415 29.8978C160.103 29.5618 159.947 29.1658 159.947 28.7098V15.7498C159.947 15.0058 160.127 14.3338 160.487 13.7338C160.871 13.1098 161.363 12.6178 161.963 12.2578C162.563 11.8978 163.235 11.7178 163.979 11.7178H168.983C169.727 11.7178 170.399 11.8978 170.999 12.2578C171.599 12.6178 172.079 13.1098 172.439 13.7338C172.799 14.3338 172.979 15.0058 172.979 15.7498V28.7098Z" fill="white"/>
</svg>
