<svg width="113" height="24" viewBox="0 0 113 24" fill="none" xmlns="http://www.w3.org/2000/svg">
<path d="M24.1889 11.8889C24.1889 18.323 18.973 23.5389 12.5389 23.5389C6.1048 23.5389 0.888916 18.323 0.888916 11.8889C0.888916 5.45477 6.1048 0.238892 12.5389 0.238892C18.973 0.238892 24.1889 5.45477 24.1889 11.8889Z" fill="#006BE5"/>
<path fill-rule="evenodd" clip-rule="evenodd" d="M17.9759 6.4522H7.10253C6.67359 6.4522 6.32586 6.79993 6.32586 7.22887V14.2189C6.32586 14.6478 6.67359 14.9955 7.10253 14.9955H17.9759C18.4048 14.9955 18.7525 14.6478 18.7525 14.2189V7.22887C18.7525 6.79993 18.4048 6.4522 17.9759 6.4522ZM7.10253 5.67554C6.24465 5.67554 5.54919 6.37099 5.54919 7.22887V14.2189C5.54919 15.0768 6.24465 15.7722 7.10253 15.7722H17.9759C18.8337 15.7722 19.5292 15.0768 19.5292 14.2189V7.22887C19.5292 6.37099 18.8337 5.67554 17.9759 5.67554H7.10253Z" fill="white"/>
<path fill-rule="evenodd" clip-rule="evenodd" d="M12.539 15.3831C12.7534 15.3831 12.9273 15.5569 12.9273 15.7714V18.1014C12.9273 18.3159 12.7534 18.4897 12.539 18.4897C12.3245 18.4897 12.1506 18.3159 12.1506 18.1014V15.7714C12.1506 15.5569 12.3245 15.3831 12.539 15.3831Z" fill="white"/>
<path fill-rule="evenodd" clip-rule="evenodd" d="M16.0331 18.1022C16.0331 18.3167 15.8592 18.4905 15.6447 18.4905L9.43141 18.4905C9.21694 18.4905 9.04308 18.3167 9.04308 18.1022C9.04308 17.8877 9.21694 17.7139 9.43141 17.7139L15.6447 17.7139C15.8592 17.7139 16.0331 17.8877 16.0331 18.1022Z" fill="white"/>
<path fill-rule="evenodd" clip-rule="evenodd" d="M5.93604 13.4417C5.93604 13.2273 6.1099 13.0534 6.32437 13.0534L18.751 13.0534C18.9655 13.0534 19.1394 13.2273 19.1394 13.4417C19.1394 13.6562 18.9655 13.8301 18.751 13.8301L6.32437 13.8301C6.1099 13.8301 5.93604 13.6562 5.93604 13.4417Z" fill="white"/>
<path fill-rule="evenodd" clip-rule="evenodd" d="M10.9839 11.4024C10.6955 11.7839 10.5965 12.2514 10.5965 12.5551V12.6661C10.5965 12.8806 10.7704 13.0544 10.9848 13.0544H14.0915C14.306 13.0544 14.4798 12.8806 14.4798 12.6661V12.5551C14.4798 12.2514 14.3808 11.7839 14.0924 11.4024C13.818 11.0395 13.3514 10.7244 12.5382 10.7244C11.7249 10.7244 11.2583 11.0395 10.9839 11.4024ZM10.3644 10.934C10.789 10.3723 11.4874 9.94775 12.5382 9.94775C13.5889 9.94775 14.2873 10.3723 14.7119 10.934C15.1225 11.4771 15.2565 12.1192 15.2565 12.5551V12.6661C15.2565 13.3095 14.7349 13.8311 14.0915 13.8311H10.9848C10.3414 13.8311 9.81982 13.3095 9.81982 12.6661V12.5551C9.81982 12.1192 9.95381 11.4771 10.3644 10.934Z" fill="white"/>
<path fill-rule="evenodd" clip-rule="evenodd" d="M12.5393 9.55852C12.9682 9.55852 13.316 9.21079 13.316 8.78185C13.316 8.35291 12.9682 8.00518 12.5393 8.00518C12.1104 8.00518 11.7626 8.35291 11.7626 8.78185C11.7626 9.21079 12.1104 9.55852 12.5393 9.55852ZM12.5393 10.3352C13.3972 10.3352 14.0926 9.63973 14.0926 8.78185C14.0926 7.92397 13.3972 7.22852 12.5393 7.22852C11.6814 7.22852 10.986 7.92397 10.986 8.78185C10.986 9.63973 11.6814 10.3352 12.5393 10.3352Z" fill="white"/>
<path d="M41.5729 18.4944C41.6661 18.8516 41.6117 19.1778 41.4098 19.473C41.2079 19.7526 40.9205 19.8924 40.5477 19.8924H39.872C39.6545 19.8924 39.4448 19.8225 39.2429 19.6827C39.0565 19.5429 38.9245 19.372 38.8468 19.1701L37.9614 16.4906C37.8993 16.2886 37.7672 16.1877 37.5653 16.1877H33.581C33.3791 16.1877 33.247 16.2886 33.1849 16.4906L32.2995 19.1701C32.2218 19.372 32.0898 19.5429 31.9034 19.6827C31.717 19.8225 31.5073 19.8924 31.2743 19.8924H30.5986C30.2258 19.8924 29.9384 19.7526 29.7365 19.473C29.519 19.1623 29.4724 18.8361 29.5967 18.4944L34.1169 4.86385C34.1946 4.64639 34.3188 4.47552 34.4897 4.35125C34.6761 4.21145 34.878 4.14155 35.0955 4.14155H36.0508C36.2683 4.14155 36.4702 4.21145 36.6566 4.35125C36.843 4.47552 36.9673 4.64639 37.0294 4.86385L41.5729 18.4944ZM36.8663 13.1354L35.7013 9.57045C35.6236 9.46172 35.5382 9.46172 35.445 9.57045L34.28 13.1354C34.2489 13.213 34.2567 13.2829 34.3033 13.3451C34.3499 13.4072 34.412 13.4383 34.4897 13.4383H36.6566C36.7343 13.4383 36.7964 13.4072 36.843 13.3451C36.8896 13.2829 36.8974 13.213 36.8663 13.1354Z" fill="#006BE5"/>
<path d="M46.97 10.4869C46.97 10.9685 46.7991 11.3801 46.4574 11.7218C46.1156 12.0636 45.704 12.2344 45.2225 12.2344C44.7409 12.2344 44.3293 12.0636 43.9876 11.7218C43.6458 11.3801 43.475 10.9685 43.475 10.4869C43.475 10.0054 43.6458 9.59375 43.9876 9.25202C44.3293 8.91029 44.7409 8.73942 45.2225 8.73942C45.704 8.73942 46.1156 8.91029 46.4574 9.25202C46.7991 9.59375 46.97 10.0054 46.97 10.4869ZM46.97 15.2867C46.97 15.7683 46.7991 16.1877 46.4574 16.5449C46.1156 16.8867 45.704 17.0575 45.2225 17.0575C44.7409 17.0575 44.3293 16.8867 43.9876 16.5449C43.6458 16.1877 43.475 15.7683 43.475 15.2867C43.475 14.8052 43.6458 14.3936 43.9876 14.0518C44.3293 13.7101 44.7409 13.5392 45.2225 13.5392C45.704 13.5392 46.1156 13.7101 46.4574 14.0518C46.7991 14.3936 46.97 14.8052 46.97 15.2867Z" fill="#006BE5"/>
<path d="M55.8105 18.8206C55.8105 19.1157 55.7095 19.372 55.5076 19.5895C55.3057 19.7914 55.0571 19.8924 54.762 19.8924H51.5C50.7855 19.8924 50.1719 19.6438 49.6593 19.1468C49.1622 18.6342 48.9137 18.0128 48.9137 17.2828V5.21335C48.9137 4.90269 49.0147 4.64639 49.2166 4.44445C49.4185 4.24252 49.6671 4.14155 49.9622 4.14155H50.6146C50.9097 4.14155 51.1583 4.24252 51.3602 4.44445C51.5777 4.64639 51.6864 4.90269 51.6864 5.21335V7.54335C51.6864 7.72975 51.7874 7.82295 51.9893 7.82295H54.762C55.0571 7.82295 55.3057 7.93169 55.5076 8.14915C55.7095 8.35109 55.8105 8.60739 55.8105 8.91805V9.54715C55.8105 9.81122 55.7095 10.0598 55.5076 10.2928C55.2746 10.4947 55.0261 10.5957 54.762 10.5957H51.9893C51.7874 10.5957 51.6864 10.7044 51.6864 10.9219V16.8401C51.6864 17.042 51.7874 17.143 51.9893 17.143H54.762C55.0571 17.143 55.3057 17.2439 55.5076 17.4459C55.7095 17.6478 55.8105 17.9041 55.8105 18.2148V18.8206Z" fill="#006BE5"/>
<path d="M66.1307 12.9723C66.1307 13.4383 66.0142 13.8732 65.7812 14.2771C65.5482 14.6654 65.2376 14.9838 64.8492 15.2324C64.4609 15.4654 64.026 15.5819 63.5444 15.5819H60.795C60.7174 15.5819 60.6397 15.6129 60.562 15.6751C60.4999 15.7217 60.4688 15.7838 60.4688 15.8615V16.8401C60.4688 16.9177 60.4999 16.9876 60.562 17.0498C60.6397 17.1119 60.7174 17.143 60.795 17.143H63.5444C63.8396 17.143 64.0881 17.2439 64.29 17.4459C64.5075 17.6478 64.6162 17.9041 64.6162 18.2148V18.8206C64.6162 19.1157 64.5075 19.372 64.29 19.5895C64.0881 19.7914 63.8396 19.8924 63.5444 19.8924H60.3057C59.5912 19.8924 58.9776 19.6438 58.465 19.1468C57.9524 18.6342 57.6961 18.0128 57.6961 17.2828V10.4326C57.6961 9.95102 57.8126 9.51609 58.0456 9.12775C58.2942 8.73942 58.6126 8.42875 59.0009 8.19575C59.3893 7.94722 59.8242 7.82295 60.3057 7.82295H63.5444C64.026 7.82295 64.4609 7.94722 64.8492 8.19575C65.2376 8.42875 65.5482 8.73942 65.7812 9.12775C66.0142 9.51609 66.1307 9.95102 66.1307 10.4326V12.9723ZM63.3813 12.5063V10.9219C63.3813 10.8287 63.3425 10.751 63.2648 10.6889C63.2027 10.6267 63.1328 10.5957 63.0551 10.5957H60.795C60.7174 10.5957 60.6397 10.6267 60.562 10.6889C60.4999 10.751 60.4688 10.8287 60.4688 10.9219V12.5063C60.4688 12.5684 60.4999 12.6305 60.562 12.6927C60.6397 12.7548 60.7174 12.7859 60.795 12.7859H63.0551C63.1328 12.7859 63.2027 12.7548 63.2648 12.6927C63.3425 12.6305 63.3813 12.5684 63.3813 12.5063Z" fill="#006BE5"/>
<path d="M76.461 18.8206C76.461 19.1157 76.3601 19.372 76.1581 19.5895C75.9562 19.7914 75.7077 19.8924 75.4125 19.8924H74.7601C74.465 19.8924 74.2165 19.7914 74.0145 19.5895C73.8126 19.372 73.7116 19.1157 73.7116 18.8206V10.9219C73.7116 10.8287 73.6728 10.751 73.5951 10.6889C73.533 10.6267 73.4631 10.5957 73.3854 10.5957H71.1253C71.0477 10.5957 70.97 10.6267 70.8923 10.6889C70.8302 10.751 70.7991 10.8287 70.7991 10.9219V18.8206C70.7991 19.1157 70.6982 19.372 70.4962 19.5895C70.2943 19.7914 70.0458 19.8924 69.7506 19.8924H69.0982C68.8031 19.8924 68.5468 19.7914 68.3293 19.5895C68.1274 19.372 68.0264 19.1157 68.0264 18.8206V10.4326C68.0264 9.95102 68.1429 9.51609 68.3759 9.12775C68.6245 8.72389 68.9429 8.40545 69.3312 8.17245C69.7196 7.93945 70.1545 7.82295 70.636 7.82295H73.8747C74.3563 7.82295 74.7912 7.93945 75.1795 8.17245C75.5679 8.40545 75.8785 8.72389 76.1115 9.12775C76.3445 9.51609 76.461 9.95102 76.461 10.4326V18.8206Z" fill="#006BE5"/>
<path d="M86.7913 17.2828C86.7913 18.0128 86.535 18.6342 86.0224 19.1468C85.5253 19.6438 84.9195 19.8924 84.205 19.8924H80.9663C80.2518 19.8924 79.6382 19.6438 79.1256 19.1468C78.613 18.6342 78.3567 18.0128 78.3567 17.2828V16.3275C78.3567 16.0323 78.4577 15.7838 78.6596 15.5819C78.8771 15.3644 79.1334 15.2557 79.4285 15.2557H80.0809C80.376 15.2557 80.6246 15.3644 80.8265 15.5819C81.0284 15.7838 81.1294 16.0323 81.1294 16.3275V16.8401C81.1294 17.042 81.2381 17.143 81.4556 17.143H83.7157C83.7934 17.143 83.8633 17.1119 83.9254 17.0498C84.0031 16.9876 84.0419 16.9177 84.0419 16.8401V15.978C84.0419 15.8537 83.9798 15.7683 83.8555 15.7217L80.477 14.6499C79.8557 14.4324 79.3431 14.0596 78.9392 13.5315C78.5509 13.0033 78.3567 12.4053 78.3567 11.7374V10.4326C78.3567 9.95102 78.4732 9.51609 78.7062 9.12775C78.9547 8.73942 79.2732 8.42875 79.6615 8.19575C80.0498 7.94722 80.4848 7.82295 80.9663 7.82295H84.205C84.6865 7.82295 85.1215 7.94722 85.5098 8.19575C85.8981 8.42875 86.2088 8.73942 86.4418 9.12775C86.6748 9.51609 86.7913 9.95102 86.7913 10.4326V11.3646C86.7913 11.6597 86.6903 11.916 86.4884 12.1335C86.2865 12.3354 86.0379 12.4364 85.7428 12.4364H85.0904C84.7953 12.4364 84.5467 12.3354 84.3448 12.1335C84.1429 11.916 84.0419 11.6597 84.0419 11.3646V10.9219C84.0419 10.8287 84.0031 10.751 83.9254 10.6889C83.8633 10.6267 83.7934 10.5957 83.7157 10.5957H81.4556C81.2381 10.5957 81.1294 10.7044 81.1294 10.9219V11.7374C81.1294 11.8927 81.1915 11.9859 81.3158 12.017L84.6943 13.0888C85.3312 13.2907 85.836 13.6557 86.2088 14.1839C86.5971 14.712 86.7913 15.31 86.7913 15.978V17.2828Z" fill="#006BE5"/>
<path d="M92.2053 5.63275C92.2053 6.11429 92.0266 6.53369 91.6694 6.89095C91.3276 7.23269 90.9238 7.40355 90.4578 7.40355C89.9762 7.40355 89.5568 7.23269 89.1996 6.89095C88.8578 6.53369 88.687 6.11429 88.687 5.63275C88.687 5.16675 88.8578 4.76289 89.1996 4.42115C89.5568 4.06389 89.9762 3.88525 90.4578 3.88525C90.9238 3.88525 91.3276 4.06389 91.6694 4.42115C92.0266 4.76289 92.2053 5.16675 92.2053 5.63275ZM91.8325 18.8206C91.8325 19.1157 91.7237 19.372 91.5063 19.5895C91.3043 19.7914 91.0558 19.8924 90.7607 19.8924H90.1316C89.8364 19.8924 89.5801 19.7914 89.3627 19.5895C89.1607 19.372 89.0598 19.1157 89.0598 18.8206V9.15105C89.0598 8.85592 89.1607 8.60739 89.3627 8.40545C89.5801 8.18799 89.8364 8.07925 90.1316 8.07925H90.7607C91.0558 8.07925 91.3043 8.18799 91.5063 8.40545C91.7237 8.60739 91.8325 8.85592 91.8325 9.15105V18.8206Z" fill="#006BE5"/>
<path d="M102.514 17.2828C102.514 18.0128 102.258 18.6342 101.745 19.1468C101.248 19.6438 100.642 19.8924 99.9279 19.8924H96.6892C95.9747 19.8924 95.3611 19.6438 94.8485 19.1468C94.3359 18.6342 94.0796 18.0128 94.0796 17.2828V10.4326C94.0796 9.95102 94.1961 9.51609 94.4291 9.12775C94.6777 8.72389 94.9961 8.40545 95.3844 8.17245C95.7728 7.93945 96.2077 7.82295 96.6892 7.82295H99.9279C100.409 7.82295 100.844 7.93945 101.233 8.17245C101.621 8.40545 101.932 8.72389 102.165 9.12775C102.398 9.51609 102.514 9.95102 102.514 10.4326V17.2828ZM99.7648 16.8401V10.9219C99.7648 10.8287 99.726 10.751 99.6483 10.6889C99.5862 10.6267 99.5163 10.5957 99.4386 10.5957H97.1785C97.1009 10.5957 97.0232 10.6267 96.9455 10.6889C96.8834 10.751 96.8523 10.8287 96.8523 10.9219V16.8401C96.8523 16.9177 96.8834 16.9876 96.9455 17.0498C97.0232 17.1119 97.1009 17.143 97.1785 17.143H99.4386C99.5163 17.143 99.5862 17.1119 99.6483 17.0498C99.726 16.9876 99.7648 16.9177 99.7648 16.8401Z" fill="#006BE5"/>
<path d="M112.845 18.8206C112.845 19.1157 112.744 19.372 112.542 19.5895C112.34 19.7914 112.091 19.8924 111.796 19.8924H111.144C110.848 19.8924 110.6 19.7914 110.398 19.5895C110.196 19.372 110.095 19.1157 110.095 18.8206V10.9219C110.095 10.8287 110.056 10.751 109.979 10.6889C109.916 10.6267 109.847 10.5957 109.769 10.5957H107.509C107.431 10.5957 107.353 10.6267 107.276 10.6889C107.214 10.751 107.183 10.8287 107.183 10.9219V18.8206C107.183 19.1157 107.082 19.372 106.88 19.5895C106.678 19.7914 106.429 19.8924 106.134 19.8924H105.482C105.187 19.8924 104.93 19.7914 104.713 19.5895C104.511 19.372 104.41 19.1157 104.41 18.8206V10.4326C104.41 9.95102 104.526 9.51609 104.759 9.12775C105.008 8.72389 105.326 8.40545 105.715 8.17245C106.103 7.93945 106.538 7.82295 107.02 7.82295H110.258C110.74 7.82295 111.175 7.93945 111.563 8.17245C111.951 8.40545 112.262 8.72389 112.495 9.12775C112.728 9.51609 112.845 9.95102 112.845 10.4326V18.8206Z" fill="#006BE5"/>
</svg>
