<svg width="206" height="131" viewBox="0 0 206 131" fill="none" xmlns="http://www.w3.org/2000/svg">
<circle cx="183.5" cy="28.5" r="14.5" fill="#ECF3FC"/>
<circle cx="37" cy="21" r="7" fill="#ECF3FC"/>
<circle cx="202" cy="73" r="4" fill="#ECF3FC"/>
<circle cx="138" cy="105" r="7" fill="#ECF3FC"/>
<circle cx="25.5" cy="105.5" r="25.5" fill="#ECF3FC"/>
<path fill-rule="evenodd" clip-rule="evenodd" d="M124 42.5C125.381 42.5 126.5 43.6193 126.5 45L126.5 47.2222C126.5 48.6029 125.381 49.7222 124 49.7222C122.619 49.7222 121.5 48.6029 121.5 47.2222L121.5 45C121.5 43.6193 122.619 42.5 124 42.5ZM124 53.6111C125.381 53.6111 126.5 54.7304 126.5 56.1111L126.5 60.5556C126.5 61.9363 125.381 63.0556 124 63.0556C122.619 63.0556 121.5 61.9363 121.5 60.5556L121.5 56.1111C121.5 54.7304 122.619 53.6111 124 53.6111ZM124 66.9444C125.381 66.9444 126.5 68.0637 126.5 69.4444L126.5 73.8889C126.5 75.2696 125.381 76.3889 124 76.3889C122.619 76.3889 121.5 75.2696 121.5 73.8889L121.5 69.4444C121.5 68.0637 122.619 66.9444 124 66.9444ZM124 80.2778C125.381 80.2778 126.5 81.3971 126.5 82.7778L126.5 85C126.5 86.3807 125.381 87.5 124 87.5C122.619 87.5 121.5 86.3807 121.5 85L121.5 82.7778C121.5 81.3971 122.619 80.2778 124 80.2778Z" fill="#006BE5"/>
<path fill-rule="evenodd" clip-rule="evenodd" d="M64 53.1218C64.0078 53.1309 64.0177 53.1417 64.03 53.1542C64.1669 53.2925 64.492 53.5092 64.9949 53.6136C66.8896 54.0068 69.3182 54.8384 71.3105 56.7574C73.4511 58.8191 74.5882 61.6516 74.5882 65C74.5882 68.3484 73.4511 71.1809 71.3105 73.2426C69.3182 75.1616 66.8896 75.9932 64.9949 76.3864C64.492 76.4908 64.1669 76.7075 64.03 76.8458C64.0177 76.8583 64.0078 76.8691 64 76.8782V85L144 85V76.8615C143.989 76.8473 143.973 76.8276 143.949 76.8031C143.802 76.6527 143.476 76.4373 142.993 76.3356C141.066 75.9298 138.636 75.0884 136.653 73.1704C134.522 71.1089 133.412 68.2952 133.412 65C133.412 61.7048 134.522 58.8911 136.653 56.8296C138.636 54.9116 141.066 54.0702 142.993 53.6644C143.476 53.5627 143.802 53.3473 143.949 53.1969C143.973 53.1724 143.989 53.1527 144 53.1385V45H64L64 45V53.1218ZM63.9789 71.4907C66.8012 70.9051 69.5882 69.3085 69.5882 65C69.5882 60.6915 66.8012 59.0949 63.9789 58.5093C61.2751 57.9481 59 55.9432 59 53.1818V45C59 42.2386 61.2386 40 64 40H144C146.761 40 149 42.2386 149 45V53.1818C149 55.9432 146.726 57.9878 144.024 58.557C141.122 59.1682 138.412 60.7751 138.412 65C138.412 69.2249 141.122 70.8318 144.024 71.443C146.726 72.0122 149 74.0568 149 76.8182V85C149 87.7614 146.761 90 144 90H64C61.2386 90 59 87.7614 59 85V76.8182C59 74.0568 61.2751 72.0519 63.9789 71.4907Z" fill="#006BE5"/>
<path fill-rule="evenodd" clip-rule="evenodd" d="M131.782 30.5339C131.199 29.2957 129.73 28.7561 128.484 29.3232L100.037 42.2769C98.7801 42.8491 97.2976 42.2943 96.7254 41.0378C96.1532 39.7812 96.708 38.2987 97.9646 37.7265L126.412 24.7728C130.148 23.0714 134.558 24.6902 136.306 28.4049L141.263 38.9372C141.851 40.1865 141.314 41.6759 140.065 42.2638C138.816 42.8517 137.326 42.3155 136.739 41.0662L131.782 30.5339Z" fill="#006BE5"/>
</svg>
