<svg width="24" height="24" viewBox="0 0 24 24" fill="none" xmlns="http://www.w3.org/2000/svg">
<circle cx="11.9062" cy="11.9062" r="11.9062" fill="white"/>
<path fill-rule="evenodd" clip-rule="evenodd" d="M15.875 8.59896H7.9375C7.20687 8.59896 6.61458 9.19125 6.61458 9.92187V14.0109C6.61458 14.7415 7.20687 15.3338 7.9375 15.3338H9.84412C10.5171 15.3338 11.1334 15.709 11.4506 16.2936C11.6462 16.6542 12.1487 16.6325 12.3206 16.3043C12.6331 15.7077 13.251 15.3338 13.9245 15.3338H15.875C16.6056 15.3338 17.1979 14.7415 17.1979 14.0109V9.92188C17.1979 9.19125 16.6056 8.59896 15.875 8.59896ZM7.9375 7.9375C6.84156 7.9375 5.95312 8.82593 5.95312 9.92187V14.0109C5.95312 15.1068 6.84156 15.9953 7.9375 15.9953H9.84412C10.2706 15.9953 10.6658 16.2342 10.8692 16.609C11.3076 17.4173 12.4798 17.4258 12.9065 16.6112C13.1049 16.2326 13.497 15.9953 13.9245 15.9953H15.875C16.9709 15.9953 17.8594 15.1068 17.8594 14.0109V9.92188C17.8594 8.82594 16.9709 7.9375 15.875 7.9375H7.9375Z" fill="#1A1A1A"/>
<path fill-rule="evenodd" clip-rule="evenodd" d="M15.875 8.59896H7.9375C7.20687 8.59896 6.61458 9.19125 6.61458 9.92187V14.0109C6.61458 14.7415 7.20687 15.3338 7.9375 15.3338H9.84412C10.5171 15.3338 11.1334 15.709 11.4506 16.2936C11.6462 16.6542 12.1487 16.6325 12.3206 16.3043C12.6331 15.7077 13.251 15.3338 13.9245 15.3338H15.875C16.6056 15.3338 17.1979 14.7415 17.1979 14.0109V9.92188C17.1979 9.19125 16.6056 8.59896 15.875 8.59896ZM7.9375 7.9375C6.84156 7.9375 5.95312 8.82593 5.95312 9.92187V14.0109C5.95312 15.1068 6.84156 15.9953 7.9375 15.9953H9.84412C10.2706 15.9953 10.6658 16.2342 10.8692 16.609C11.3076 17.4173 12.4798 17.4258 12.9065 16.6112C13.1049 16.2326 13.497 15.9953 13.9245 15.9953H15.875C16.9709 15.9953 17.8594 15.1068 17.8594 14.0109V9.92188C17.8594 8.82594 16.9709 7.9375 15.875 7.9375H7.9375Z" fill="white" fill-opacity="0.5"/>
<path d="M14.6543 11.9062C14.6543 12.1802 14.4322 12.4023 14.1582 12.4023C13.8842 12.4023 13.6621 12.1802 13.6621 11.9062C13.6621 11.6323 13.8842 11.4102 14.1582 11.4102C14.4322 11.4102 14.6543 11.6323 14.6543 11.9062Z" fill="#1A1A1A"/>
<path d="M14.6543 11.9062C14.6543 12.1802 14.4322 12.4023 14.1582 12.4023C13.8842 12.4023 13.6621 12.1802 13.6621 11.9062C13.6621 11.6323 13.8842 11.4102 14.1582 11.4102C14.4322 11.4102 14.6543 11.6323 14.6543 11.9062Z" fill="white" fill-opacity="0.5"/>
<path d="M12.3389 11.9062C12.3389 12.1802 12.1168 12.4023 11.8428 12.4023C11.5688 12.4023 11.3467 12.1802 11.3467 11.9062C11.3467 11.6323 11.5688 11.4102 11.8428 11.4102C12.1168 11.4102 12.3389 11.6323 12.3389 11.9062Z" fill="#1A1A1A"/>
<path d="M12.3389 11.9062C12.3389 12.1802 12.1168 12.4023 11.8428 12.4023C11.5688 12.4023 11.3467 12.1802 11.3467 11.9062C11.3467 11.6323 11.5688 11.4102 11.8428 11.4102C12.1168 11.4102 12.3389 11.6323 12.3389 11.9062Z" fill="white" fill-opacity="0.5"/>
<path d="M10.0244 11.9062C10.0244 12.1802 9.80231 12.4023 9.52832 12.4023C9.25434 12.4023 9.03223 12.1802 9.03223 11.9062C9.03223 11.6323 9.25434 11.4102 9.52832 11.4102C9.80231 11.4102 10.0244 11.6323 10.0244 11.9062Z" fill="#1A1A1A"/>
<path d="M10.0244 11.9062C10.0244 12.1802 9.80231 12.4023 9.52832 12.4023C9.25434 12.4023 9.03223 12.1802 9.03223 11.9062C9.03223 11.6323 9.25434 11.4102 9.52832 11.4102C9.80231 11.4102 10.0244 11.6323 10.0244 11.9062Z" fill="white" fill-opacity="0.5"/>
</svg>
