<svg width="22" height="22" viewBox="0 0 22 22" fill="none" xmlns="http://www.w3.org/2000/svg">
<path fill-rule="evenodd" clip-rule="evenodd" d="M15.3335 1.99967C15.3335 1.63148 15.632 1.33301 16.0002 1.33301C17.9722 1.33301 19.3335 3.27038 19.3335 5.33301C19.3335 7.39564 17.9722 9.33301 16.0002 9.33301C15.632 9.33301 15.3335 9.03453 15.3335 8.66634C15.3335 8.29815 15.632 7.99967 16.0002 7.99967C16.9736 7.99967 18.0002 6.95228 18.0002 5.33301C18.0002 3.71374 16.9736 2.66634 16.0002 2.66634C15.632 2.66634 15.3335 2.36786 15.3335 1.99967Z" fill="#1A1A1A"/>
<path fill-rule="evenodd" clip-rule="evenodd" d="M15.3335 1.99967C15.3335 1.63148 15.632 1.33301 16.0002 1.33301C17.9722 1.33301 19.3335 3.27038 19.3335 5.33301C19.3335 7.39564 17.9722 9.33301 16.0002 9.33301C15.632 9.33301 15.3335 9.03453 15.3335 8.66634C15.3335 8.29815 15.632 7.99967 16.0002 7.99967C16.9736 7.99967 18.0002 6.95228 18.0002 5.33301C18.0002 3.71374 16.9736 2.66634 16.0002 2.66634C15.632 2.66634 15.3335 2.36786 15.3335 1.99967Z" fill="white" fill-opacity="0.5"/>
<path fill-rule="evenodd" clip-rule="evenodd" d="M3.43763 14.269C2.35781 15.5188 1.99984 17.0233 1.99984 17.9998V19.3332C1.99984 19.7014 2.29831 19.9998 2.6665 19.9998H15.9998C16.368 19.9998 16.6665 19.7014 16.6665 19.3332V17.9998C16.6665 17.0233 16.3085 15.5188 15.2287 14.269C14.1697 13.0434 12.3626 11.9998 9.33317 11.9998C6.30371 11.9998 4.4966 13.0434 3.43763 14.269ZM2.42871 13.3973C3.76974 11.8452 5.96263 10.6665 9.33317 10.6665C12.7037 10.6665 14.8966 11.8452 16.2376 13.3973C17.5578 14.9253 17.9998 16.7542 17.9998 17.9998V19.3332C17.9998 20.4377 17.1044 21.3332 15.9998 21.3332H2.6665C1.56193 21.3332 0.666504 20.4377 0.666504 19.3332V17.9998C0.666504 16.7542 1.10853 14.9253 2.42871 13.3973Z" fill="#1A1A1A"/>
<path fill-rule="evenodd" clip-rule="evenodd" d="M3.43763 14.269C2.35781 15.5188 1.99984 17.0233 1.99984 17.9998V19.3332C1.99984 19.7014 2.29831 19.9998 2.6665 19.9998H15.9998C16.368 19.9998 16.6665 19.7014 16.6665 19.3332V17.9998C16.6665 17.0233 16.3085 15.5188 15.2287 14.269C14.1697 13.0434 12.3626 11.9998 9.33317 11.9998C6.30371 11.9998 4.4966 13.0434 3.43763 14.269ZM2.42871 13.3973C3.76974 11.8452 5.96263 10.6665 9.33317 10.6665C12.7037 10.6665 14.8966 11.8452 16.2376 13.3973C17.5578 14.9253 17.9998 16.7542 17.9998 17.9998V19.3332C17.9998 20.4377 17.1044 21.3332 15.9998 21.3332H2.6665C1.56193 21.3332 0.666504 20.4377 0.666504 19.3332V17.9998C0.666504 16.7542 1.10853 14.9253 2.42871 13.3973Z" fill="white" fill-opacity="0.5"/>
<path fill-rule="evenodd" clip-rule="evenodd" d="M18.1293 12.4543C18.3472 12.1575 18.7645 12.0936 19.0612 12.3114C21.3105 13.9628 22 16.4492 22 17.9997V19.3978C22 20.4667 21.1335 21.3332 20.0646 21.3332C19.6964 21.3332 19.3979 21.0347 19.3979 20.6665C19.3979 20.2984 19.6964 19.9999 20.0646 19.9999C20.3971 19.9999 20.6667 19.7303 20.6667 19.3978V17.9997C20.6667 16.7678 20.102 14.7296 18.2722 13.3862C17.9754 13.1683 17.9114 12.7511 18.1293 12.4543Z" fill="#1A1A1A"/>
<path fill-rule="evenodd" clip-rule="evenodd" d="M18.1293 12.4543C18.3472 12.1575 18.7645 12.0936 19.0612 12.3114C21.3105 13.9628 22 16.4492 22 17.9997V19.3978C22 20.4667 21.1335 21.3332 20.0646 21.3332C19.6964 21.3332 19.3979 21.0347 19.3979 20.6665C19.3979 20.2984 19.6964 19.9999 20.0646 19.9999C20.3971 19.9999 20.6667 19.7303 20.6667 19.3978V17.9997C20.6667 16.7678 20.102 14.7296 18.2722 13.3862C17.9754 13.1683 17.9114 12.7511 18.1293 12.4543Z" fill="white" fill-opacity="0.5"/>
<path fill-rule="evenodd" clip-rule="evenodd" d="M10.0002 8.6665C11.8411 8.6665 13.3335 7.17412 13.3335 5.33317C13.3335 3.49222 11.8411 1.99984 10.0002 1.99984C8.15921 1.99984 6.66683 3.49222 6.66683 5.33317C6.66683 7.17412 8.15921 8.6665 10.0002 8.6665ZM10.0002 9.99984C12.5775 9.99984 14.6668 7.9105 14.6668 5.33317C14.6668 2.75584 12.5775 0.666504 10.0002 0.666504C7.42283 0.666504 5.3335 2.75584 5.3335 5.33317C5.3335 7.9105 7.42283 9.99984 10.0002 9.99984Z" fill="#1A1A1A"/>
<path fill-rule="evenodd" clip-rule="evenodd" d="M10.0002 8.6665C11.8411 8.6665 13.3335 7.17412 13.3335 5.33317C13.3335 3.49222 11.8411 1.99984 10.0002 1.99984C8.15921 1.99984 6.66683 3.49222 6.66683 5.33317C6.66683 7.17412 8.15921 8.6665 10.0002 8.6665ZM10.0002 9.99984C12.5775 9.99984 14.6668 7.9105 14.6668 5.33317C14.6668 2.75584 12.5775 0.666504 10.0002 0.666504C7.42283 0.666504 5.3335 2.75584 5.3335 5.33317C5.3335 7.9105 7.42283 9.99984 10.0002 9.99984Z" fill="white" fill-opacity="0.5"/>
</svg>
