<svg width="24" height="23" viewBox="0 0 24 23" fill="none" xmlns="http://www.w3.org/2000/svg">
<path fill-rule="evenodd" clip-rule="evenodd" d="M21.3333 3.99984H2.66667C1.93029 3.99984 1.33333 4.59679 1.33333 5.33317V19.9998C1.33333 20.7362 1.93029 21.3332 2.66667 21.3332H21.3333C22.0697 21.3332 22.6667 20.7362 22.6667 19.9998V5.33317C22.6667 4.59679 22.0697 3.99984 21.3333 3.99984ZM2.66667 2.6665C1.19391 2.6665 0 3.86041 0 5.33317V19.9998C0 21.4726 1.19391 22.6665 2.66667 22.6665H21.3333C22.8061 22.6665 24 21.4726 24 19.9998V5.33317C24 3.86041 22.8061 2.6665 21.3333 2.6665H2.66667Z" fill="#1A1A1A"/>
<path fill-rule="evenodd" clip-rule="evenodd" d="M21.3333 3.99984H2.66667C1.93029 3.99984 1.33333 4.59679 1.33333 5.33317V19.9998C1.33333 20.7362 1.93029 21.3332 2.66667 21.3332H21.3333C22.0697 21.3332 22.6667 20.7362 22.6667 19.9998V5.33317C22.6667 4.59679 22.0697 3.99984 21.3333 3.99984ZM2.66667 2.6665C1.19391 2.6665 0 3.86041 0 5.33317V19.9998C0 21.4726 1.19391 22.6665 2.66667 22.6665H21.3333C22.8061 22.6665 24 21.4726 24 19.9998V5.33317C24 3.86041 22.8061 2.6665 21.3333 2.6665H2.66667Z" fill="white" fill-opacity="0.5"/>
<path d="M4 10.6665H6.66667V13.3332H4V10.6665Z" fill="#1A1A1A"/>
<path d="M4 10.6665H6.66667V13.3332H4V10.6665Z" fill="white" fill-opacity="0.5"/>
<path d="M4 16H6.66667V18.6667H4V16Z" fill="#1A1A1A"/>
<path d="M4 16H6.66667V18.6667H4V16Z" fill="white" fill-opacity="0.5"/>
<path d="M10.667 10.6665H13.3337V13.3332H10.667V10.6665Z" fill="#1A1A1A"/>
<path d="M10.667 10.6665H13.3337V13.3332H10.667V10.6665Z" fill="white" fill-opacity="0.5"/>
<path d="M10.667 16H13.3337V18.6667H10.667V16Z" fill="#1A1A1A"/>
<path d="M10.667 16H13.3337V18.6667H10.667V16Z" fill="white" fill-opacity="0.5"/>
<path d="M17.333 10.6665H19.9997V13.3332H17.333V10.6665Z" fill="#1A1A1A"/>
<path d="M17.333 10.6665H19.9997V13.3332H17.333V10.6665Z" fill="white" fill-opacity="0.5"/>
<path d="M17.333 16H19.9997V18.6667H17.333V16Z" fill="#1A1A1A"/>
<path d="M17.333 16H19.9997V18.6667H17.333V16Z" fill="white" fill-opacity="0.5"/>
<path fill-rule="evenodd" clip-rule="evenodd" d="M0.666992 7.99984C0.666992 7.63165 0.965469 7.33317 1.33366 7.33317L22.667 7.33317C23.0352 7.33317 23.3337 7.63165 23.3337 7.99984C23.3337 8.36803 23.0352 8.6665 22.667 8.6665L1.33366 8.6665C0.965469 8.6665 0.666992 8.36803 0.666992 7.99984Z" fill="#1A1A1A"/>
<path fill-rule="evenodd" clip-rule="evenodd" d="M0.666992 7.99984C0.666992 7.63165 0.965469 7.33317 1.33366 7.33317L22.667 7.33317C23.0352 7.33317 23.3337 7.63165 23.3337 7.99984C23.3337 8.36803 23.0352 8.6665 22.667 8.6665L1.33366 8.6665C0.965469 8.6665 0.666992 8.36803 0.666992 7.99984Z" fill="white" fill-opacity="0.5"/>
<path fill-rule="evenodd" clip-rule="evenodd" d="M5.33366 0.666504C5.70185 0.666504 6.00033 0.964981 6.00033 1.33317V2.6665C6.00033 3.03469 5.70185 3.33317 5.33366 3.33317C4.96547 3.33317 4.66699 3.03469 4.66699 2.6665V1.33317C4.66699 0.964981 4.96547 0.666504 5.33366 0.666504Z" fill="#1A1A1A"/>
<path fill-rule="evenodd" clip-rule="evenodd" d="M5.33366 0.666504C5.70185 0.666504 6.00033 0.964981 6.00033 1.33317V2.6665C6.00033 3.03469 5.70185 3.33317 5.33366 3.33317C4.96547 3.33317 4.66699 3.03469 4.66699 2.6665V1.33317C4.66699 0.964981 4.96547 0.666504 5.33366 0.666504Z" fill="white" fill-opacity="0.5"/>
<path fill-rule="evenodd" clip-rule="evenodd" d="M18.6667 0.666504C19.0349 0.666504 19.3333 0.964981 19.3333 1.33317V2.6665C19.3333 3.03469 19.0349 3.33317 18.6667 3.33317C18.2985 3.33317 18 3.03469 18 2.6665V1.33317C18 0.964981 18.2985 0.666504 18.6667 0.666504Z" fill="#1A1A1A"/>
<path fill-rule="evenodd" clip-rule="evenodd" d="M18.6667 0.666504C19.0349 0.666504 19.3333 0.964981 19.3333 1.33317V2.6665C19.3333 3.03469 19.0349 3.33317 18.6667 3.33317C18.2985 3.33317 18 3.03469 18 2.6665V1.33317C18 0.964981 18.2985 0.666504 18.6667 0.666504Z" fill="white" fill-opacity="0.5"/>
</svg>
