<svg width="24" height="24" viewBox="0 0 24 24" fill="none" xmlns="http://www.w3.org/2000/svg">
<path fill-rule="evenodd" clip-rule="evenodd" d="M11.7889 7.36771C11.9257 7.32209 12.0737 7.32209 12.2105 7.36771L20.2105 10.0344C20.4742 10.1223 20.6557 10.3647 20.6659 10.6425C20.6761 10.9203 20.5127 11.1753 20.2561 11.2822L12.2561 14.6155C12.092 14.6839 11.9074 14.6839 11.7433 14.6155L3.74327 11.2822C3.48663 11.1753 3.3233 10.9203 3.33346 10.6425C3.34361 10.3647 3.52511 10.1223 3.78886 10.0344L11.7889 7.36771ZM5.89961 10.7362L11.9997 13.2779L18.0997 10.7362L11.9997 8.70289L5.89961 10.7362Z" fill="#1A1A1A"/>
<path fill-rule="evenodd" clip-rule="evenodd" d="M11.7889 7.36771C11.9257 7.32209 12.0737 7.32209 12.2105 7.36771L20.2105 10.0344C20.4742 10.1223 20.6557 10.3647 20.6659 10.6425C20.6761 10.9203 20.5127 11.1753 20.2561 11.2822L12.2561 14.6155C12.092 14.6839 11.9074 14.6839 11.7433 14.6155L3.74327 11.2822C3.48663 11.1753 3.3233 10.9203 3.33346 10.6425C3.34361 10.3647 3.52511 10.1223 3.78886 10.0344L11.7889 7.36771ZM5.89961 10.7362L11.9997 13.2779L18.0997 10.7362L11.9997 8.70289L5.89961 10.7362Z" fill="white" fill-opacity="0.5"/>
<path fill-rule="evenodd" clip-rule="evenodd" d="M3.5286 10.1953C3.71963 10.0043 4.00705 9.9474 4.25642 10.0513L12 13.2778L19.7436 10.0513C19.993 9.9474 20.2804 10.0043 20.4714 10.1953L23.8047 13.5286C23.9594 13.6832 24.0283 13.9038 23.9893 14.119C23.9503 14.3341 23.8083 14.5165 23.6092 14.6069L16.2759 17.9403C16.0429 18.0462 15.7698 18.0093 15.5732 17.8455L12 14.8678L8.4268 17.8455C8.23019 18.0093 7.95713 18.0462 7.72414 17.9403L0.390807 14.6069C0.191753 14.5165 0.0497202 14.3341 0.0107071 14.119C-0.028306 13.9038 0.0406606 13.6832 0.195272 13.5286L3.5286 10.1953ZM13.272 14.1922L16.1052 16.5532L22.1817 13.7912L19.8443 11.4538L13.272 14.1922ZM10.728 14.1922L7.8948 16.5532L1.81832 13.7912L4.15572 11.4538L10.728 14.1922Z" fill="#1A1A1A"/>
<path fill-rule="evenodd" clip-rule="evenodd" d="M3.5286 10.1953C3.71963 10.0043 4.00705 9.9474 4.25642 10.0513L12 13.2778L19.7436 10.0513C19.993 9.9474 20.2804 10.0043 20.4714 10.1953L23.8047 13.5286C23.9594 13.6832 24.0283 13.9038 23.9893 14.119C23.9503 14.3341 23.8083 14.5165 23.6092 14.6069L16.2759 17.9403C16.0429 18.0462 15.7698 18.0093 15.5732 17.8455L12 14.8678L8.4268 17.8455C8.23019 18.0093 7.95713 18.0462 7.72414 17.9403L0.390807 14.6069C0.191753 14.5165 0.0497202 14.3341 0.0107071 14.119C-0.028306 13.9038 0.0406606 13.6832 0.195272 13.5286L3.5286 10.1953ZM13.272 14.1922L16.1052 16.5532L22.1817 13.7912L19.8443 11.4538L13.272 14.1922ZM10.728 14.1922L7.8948 16.5532L1.81832 13.7912L4.15572 11.4538L10.728 14.1922Z" fill="white" fill-opacity="0.5"/>
<path d="M1.33301 1.3335H2.66634V2.66683H1.33301V1.3335Z" fill="#1A1A1A"/>
<path d="M1.33301 1.3335H2.66634V2.66683H1.33301V1.3335Z" fill="white" fill-opacity="0.5"/>
<path d="M10.667 10.6665H12.0003V11.9998H10.667V10.6665Z" fill="#1A1A1A"/>
<path d="M10.667 10.6665H12.0003V11.9998H10.667V10.6665Z" fill="white" fill-opacity="0.5"/>
<path d="M4 6.6665H5.33333V7.99984H4V6.6665Z" fill="#1A1A1A"/>
<path d="M4 6.6665H5.33333V7.99984H4V6.6665Z" fill="white" fill-opacity="0.5"/>
<path d="M22.667 2.6665H24.0003V3.99984H22.667V2.6665Z" fill="#1A1A1A"/>
<path d="M22.667 2.6665H24.0003V3.99984H22.667V2.6665Z" fill="white" fill-opacity="0.5"/>
<path d="M21.333 6.6665H22.6663V7.99984H21.333V6.6665Z" fill="#1A1A1A"/>
<path d="M21.333 6.6665H22.6663V7.99984H21.333V6.6665Z" fill="white" fill-opacity="0.5"/>
<path d="M8 2.6665H9.33333V3.99984H8V2.6665Z" fill="#1A1A1A"/>
<path d="M8 2.6665H9.33333V3.99984H8V2.6665Z" fill="white" fill-opacity="0.5"/>
<path fill-rule="evenodd" clip-rule="evenodd" d="M4.73752 3.70168C4.90218 3.37236 5.30263 3.23888 5.63195 3.40354C6.10422 3.63967 6.83668 4.05833 7.52646 4.56106C8.19113 5.04548 8.91957 5.68063 9.26342 6.36834C9.42808 6.69766 9.2946 7.09811 8.96528 7.26277C8.63596 7.42743 8.23551 7.29395 8.07085 6.96463C7.88138 6.58567 7.38759 6.10972 6.74115 5.63858C6.11982 5.18575 5.45228 4.80442 5.03566 4.59611C4.70634 4.43145 4.57286 4.031 4.73752 3.70168Z" fill="#1A1A1A"/>
<path fill-rule="evenodd" clip-rule="evenodd" d="M4.73752 3.70168C4.90218 3.37236 5.30263 3.23888 5.63195 3.40354C6.10422 3.63967 6.83668 4.05833 7.52646 4.56106C8.19113 5.04548 8.91957 5.68063 9.26342 6.36834C9.42808 6.69766 9.2946 7.09811 8.96528 7.26277C8.63596 7.42743 8.23551 7.29395 8.07085 6.96463C7.88138 6.58567 7.38759 6.10972 6.74115 5.63858C6.11982 5.18575 5.45228 4.80442 5.03566 4.59611C4.70634 4.43145 4.57286 4.031 4.73752 3.70168Z" fill="white" fill-opacity="0.5"/>
<path fill-rule="evenodd" clip-rule="evenodd" d="M13.2896 0.744508C12.9645 0.571684 12.5608 0.695134 12.388 1.02024C12.1746 1.42162 11.8732 2.08498 11.6443 2.80349C11.4221 3.50131 11.2364 4.34697 11.3407 5.07097C11.3932 5.4354 11.7312 5.68826 12.0957 5.63576C12.4601 5.58325 12.7129 5.24526 12.6604 4.88083C12.6009 4.46774 12.7065 3.86226 12.9148 3.20811C13.1166 2.57464 13.3851 1.98517 13.5653 1.64609C13.7381 1.32099 13.6147 0.917332 13.2896 0.744508Z" fill="#1A1A1A"/>
<path fill-rule="evenodd" clip-rule="evenodd" d="M13.2896 0.744508C12.9645 0.571684 12.5608 0.695134 12.388 1.02024C12.1746 1.42162 11.8732 2.08498 11.6443 2.80349C11.4221 3.50131 11.2364 4.34697 11.3407 5.07097C11.3932 5.4354 11.7312 5.68826 12.0957 5.63576C12.4601 5.58325 12.7129 5.24526 12.6604 4.88083C12.6009 4.46774 12.7065 3.86226 12.9148 3.20811C13.1166 2.57464 13.3851 1.98517 13.5653 1.64609C13.7381 1.32099 13.6147 0.917332 13.2896 0.744508Z" fill="white" fill-opacity="0.5"/>
<path fill-rule="evenodd" clip-rule="evenodd" d="M20.5656 6.31342C20.3704 6.0012 19.9591 5.90628 19.6469 6.10142C19.4392 6.23123 19.1265 6.455 18.8313 6.72394C18.5521 6.97826 18.2129 7.34 18.0479 7.7525C17.9112 8.09435 18.0775 8.48233 18.4193 8.61907C18.7612 8.75582 19.1491 8.58954 19.2859 8.24768C19.3342 8.12685 19.4839 7.93303 19.7292 7.70958C19.9584 7.50074 20.2057 7.3245 20.3536 7.23209C20.6658 7.03695 20.7607 6.62565 20.5656 6.31342Z" fill="#1A1A1A"/>
<path fill-rule="evenodd" clip-rule="evenodd" d="M20.5656 6.31342C20.3704 6.0012 19.9591 5.90628 19.6469 6.10142C19.4392 6.23123 19.1265 6.455 18.8313 6.72394C18.5521 6.97826 18.2129 7.34 18.0479 7.7525C17.9112 8.09435 18.0775 8.48233 18.4193 8.61907C18.7612 8.75582 19.1491 8.58954 19.2859 8.24768C19.3342 8.12685 19.4839 7.93303 19.7292 7.70958C19.9584 7.50074 20.2057 7.3245 20.3536 7.23209C20.6658 7.03695 20.7607 6.62565 20.5656 6.31342Z" fill="white" fill-opacity="0.5"/>
<path fill-rule="evenodd" clip-rule="evenodd" d="M18.0003 2.66667C18.0003 2.29848 18.2988 2 18.667 2H20.0003C20.3685 2 20.667 2.29848 20.667 2.66667C20.667 3.03486 20.3685 3.33333 20.0003 3.33333H19.3337V4C19.3337 4.36819 19.0352 4.66667 18.667 4.66667H18.0003V5.33333C18.0003 5.70152 17.7018 6 17.3337 6H16.667V6.66667C16.667 7.03486 16.3685 7.33333 16.0003 7.33333H15.3337V8C15.3337 8.36819 15.0352 8.66667 14.667 8.66667H14.0003V9.33333C14.0003 9.70152 13.7018 10 13.3337 10C12.9655 10 12.667 9.70152 12.667 9.33333V8C12.667 7.63181 12.9655 7.33333 13.3337 7.33333H14.0003V6.66667C14.0003 6.29848 14.2988 6 14.667 6H15.3337V5.33333C15.3337 4.96514 15.6321 4.66667 16.0003 4.66667H16.667V4C16.667 3.63181 16.9655 3.33333 17.3337 3.33333H18.0003V2.66667Z" fill="#1A1A1A"/>
<path fill-rule="evenodd" clip-rule="evenodd" d="M18.0003 2.66667C18.0003 2.29848 18.2988 2 18.667 2H20.0003C20.3685 2 20.667 2.29848 20.667 2.66667C20.667 3.03486 20.3685 3.33333 20.0003 3.33333H19.3337V4C19.3337 4.36819 19.0352 4.66667 18.667 4.66667H18.0003V5.33333C18.0003 5.70152 17.7018 6 17.3337 6H16.667V6.66667C16.667 7.03486 16.3685 7.33333 16.0003 7.33333H15.3337V8C15.3337 8.36819 15.0352 8.66667 14.667 8.66667H14.0003V9.33333C14.0003 9.70152 13.7018 10 13.3337 10C12.9655 10 12.667 9.70152 12.667 9.33333V8C12.667 7.63181 12.9655 7.33333 13.3337 7.33333H14.0003V6.66667C14.0003 6.29848 14.2988 6 14.667 6H15.3337V5.33333C15.3337 4.96514 15.6321 4.66667 16.0003 4.66667H16.667V4C16.667 3.63181 16.9655 3.33333 17.3337 3.33333H18.0003V2.66667Z" fill="white" fill-opacity="0.5"/>
<path fill-rule="evenodd" clip-rule="evenodd" d="M3.62873 10.1132C3.81316 9.98935 4.04715 9.96553 4.25275 10.0496L12.0003 13.2191L19.7479 10.0496C19.9535 9.96553 20.1875 9.98935 20.3719 10.1132C20.5563 10.237 20.667 10.4445 20.667 10.6667V11L19.3337 11.6667V11.6597L12.2527 14.5564C12.091 14.6226 11.9097 14.6226 11.7479 14.5564L5.33366 11.9324V10.6667L3.33366 10.6667C3.33366 10.4445 3.4443 10.237 3.62873 10.1132ZM19.3337 16H20.667V19.3939C20.667 19.6646 20.5033 19.9085 20.2527 20.011L12.2527 23.2837C12.091 23.3499 11.9097 23.3499 11.7479 23.2837L3.74791 20.011C3.49735 19.9085 3.33366 19.6646 3.33366 19.3939V16H4.66699V18.9464L12.0003 21.9464L19.3337 18.9464V16Z" fill="#1A1A1A"/>
<path fill-rule="evenodd" clip-rule="evenodd" d="M3.62873 10.1132C3.81316 9.98935 4.04715 9.96553 4.25275 10.0496L12.0003 13.2191L19.7479 10.0496C19.9535 9.96553 20.1875 9.98935 20.3719 10.1132C20.5563 10.237 20.667 10.4445 20.667 10.6667V11L19.3337 11.6667V11.6597L12.2527 14.5564C12.091 14.6226 11.9097 14.6226 11.7479 14.5564L5.33366 11.9324V10.6667L3.33366 10.6667C3.33366 10.4445 3.4443 10.237 3.62873 10.1132ZM19.3337 16H20.667V19.3939C20.667 19.6646 20.5033 19.9085 20.2527 20.011L12.2527 23.2837C12.091 23.3499 11.9097 23.3499 11.7479 23.2837L3.74791 20.011C3.49735 19.9085 3.33366 19.6646 3.33366 19.3939V16H4.66699V18.9464L12.0003 21.9464L19.3337 18.9464V16Z" fill="white" fill-opacity="0.5"/>
</svg>
