<svg width="24" height="23" viewBox="0 0 24 23" fill="none" xmlns="http://www.w3.org/2000/svg">
<path fill-rule="evenodd" clip-rule="evenodd" d="M21.3333 1.66683H2.66667C1.93029 1.66683 1.33333 2.26378 1.33333 3.00016V15.0002C1.33333 15.7365 1.93029 16.3335 2.66667 16.3335H21.3333C22.0697 16.3335 22.6667 15.7365 22.6667 15.0002V3.00016C22.6667 2.26378 22.0697 1.66683 21.3333 1.66683ZM2.66667 0.333496C1.19391 0.333496 0 1.5274 0 3.00016V15.0002C0 16.4729 1.19391 17.6668 2.66667 17.6668H21.3333C22.8061 17.6668 24 16.4729 24 15.0002V3.00016C24 1.5274 22.8061 0.333496 21.3333 0.333496H2.66667Z" fill="#1A1A1A"/>
<path fill-rule="evenodd" clip-rule="evenodd" d="M21.3333 1.66683H2.66667C1.93029 1.66683 1.33333 2.26378 1.33333 3.00016V15.0002C1.33333 15.7365 1.93029 16.3335 2.66667 16.3335H21.3333C22.0697 16.3335 22.6667 15.7365 22.6667 15.0002V3.00016C22.6667 2.26378 22.0697 1.66683 21.3333 1.66683ZM2.66667 0.333496C1.19391 0.333496 0 1.5274 0 3.00016V15.0002C0 16.4729 1.19391 17.6668 2.66667 17.6668H21.3333C22.8061 17.6668 24 16.4729 24 15.0002V3.00016C24 1.5274 22.8061 0.333496 21.3333 0.333496H2.66667Z" fill="white" fill-opacity="0.5"/>
<path fill-rule="evenodd" clip-rule="evenodd" d="M11.9997 17C12.3679 17 12.6663 17.2985 12.6663 17.6667V21.6667C12.6663 22.0349 12.3679 22.3333 11.9997 22.3333C11.6315 22.3333 11.333 22.0349 11.333 21.6667V17.6667C11.333 17.2985 11.6315 17 11.9997 17Z" fill="#1A1A1A"/>
<path fill-rule="evenodd" clip-rule="evenodd" d="M11.9997 17C12.3679 17 12.6663 17.2985 12.6663 17.6667V21.6667C12.6663 22.0349 12.3679 22.3333 11.9997 22.3333C11.6315 22.3333 11.333 22.0349 11.333 21.6667V17.6667C11.333 17.2985 11.6315 17 11.9997 17Z" fill="white" fill-opacity="0.5"/>
<path fill-rule="evenodd" clip-rule="evenodd" d="M18 21.6667C18 22.0349 17.7015 22.3333 17.3333 22.3333L6.66667 22.3333C6.29848 22.3333 6 22.0349 6 21.6667C6 21.2985 6.29848 21 6.66667 21L17.3333 21C17.7015 21 18 21.2985 18 21.6667Z" fill="#1A1A1A"/>
<path fill-rule="evenodd" clip-rule="evenodd" d="M18 21.6667C18 22.0349 17.7015 22.3333 17.3333 22.3333L6.66667 22.3333C6.29848 22.3333 6 22.0349 6 21.6667C6 21.2985 6.29848 21 6.66667 21L17.3333 21C17.7015 21 18 21.2985 18 21.6667Z" fill="white" fill-opacity="0.5"/>
<path fill-rule="evenodd" clip-rule="evenodd" d="M0.666992 13.6668C0.666992 13.2986 0.965469 13.0002 1.33366 13.0002L22.667 13.0002C23.0352 13.0002 23.3337 13.2986 23.3337 13.6668C23.3337 14.035 23.0352 14.3335 22.667 14.3335L1.33366 14.3335C0.965469 14.3335 0.666992 14.035 0.666992 13.6668Z" fill="#1A1A1A"/>
<path fill-rule="evenodd" clip-rule="evenodd" d="M0.666992 13.6668C0.666992 13.2986 0.965469 13.0002 1.33366 13.0002L22.667 13.0002C23.0352 13.0002 23.3337 13.2986 23.3337 13.6668C23.3337 14.035 23.0352 14.3335 22.667 14.3335L1.33366 14.3335C0.965469 14.3335 0.666992 14.035 0.666992 13.6668Z" fill="white" fill-opacity="0.5"/>
</svg>
