<svg width="38" height="38" viewBox="0 0 38 38" fill="none" xmlns="http://www.w3.org/2000/svg">
<circle cx="19" cy="19" r="19" fill="#006BE5"/>
<path fill-rule="evenodd" clip-rule="evenodd" d="M27.5 12C27.5 11.1716 26.8284 10.5 26 10.5H12C11.1716 10.5 10.5 11.1716 10.5 12V26C10.5 26.8284 11.1716 27.5 12 27.5H22.5858C22.9836 27.5 23.3651 27.342 23.6464 27.0607L27.0607 23.6464C27.342 23.3651 27.5 22.9836 27.5 22.5858V12ZM26 11.5C26.2761 11.5 26.5 11.7239 26.5 12V22.5858C26.5 22.7184 26.4473 22.8456 26.3536 22.9393L22.9393 26.3536C22.8456 26.4473 22.7184 26.5 22.5858 26.5H12C11.7239 26.5 11.5 26.2761 11.5 26V12C11.5 11.7239 11.7239 11.5 12 11.5H26Z" fill="white"/>
<path fill-rule="evenodd" clip-rule="evenodd" d="M22.5 23.3C22.5 22.8582 22.8582 22.5 23.3 22.5H26.2757C26.9885 22.5 27.3454 23.3617 26.8414 23.8657L23.8657 26.8414C23.3617 27.3454 22.5 26.9885 22.5 26.2757V23.3ZM23.5 23.5V25.7929L25.7929 23.5H23.5Z" fill="white"/>
<path fill-rule="evenodd" clip-rule="evenodd" d="M22.5 19C22.5 19.2761 22.2761 19.5 22 19.5L16 19.5C15.7239 19.5 15.5 19.2761 15.5 19C15.5 18.7239 15.7239 18.5 16 18.5L22 18.5C22.2761 18.5 22.5 18.7239 22.5 19Z" fill="white"/>
<path fill-rule="evenodd" clip-rule="evenodd" d="M19 15.5C19.2761 15.5 19.5 15.7239 19.5 16V22C19.5 22.2761 19.2761 22.5 19 22.5C18.7239 22.5 18.5 22.2761 18.5 22V16C18.5 15.7239 18.7239 15.5 19 15.5Z" fill="white"/>
</svg>
