<svg width="50" height="50" viewBox="0 0 50 50" fill="none" xmlns="http://www.w3.org/2000/svg">
<path d="M50 25C50 38.8071 38.8071 50 25 50C11.1929 50 0 38.8071 0 25C0 11.1929 11.1929 0 25 0C38.8071 0 50 11.1929 50 25Z" fill="#006BE5"/>
<path d="M37.8455 38.8C38.0455 39.5667 37.9288 40.2667 37.4955 40.9C37.0621 41.5 36.4455 41.8 35.6455 41.8H34.1955C33.7288 41.8 33.2788 41.65 32.8455 41.35C32.4455 41.05 32.1621 40.6833 31.9955 40.25L30.0955 34.5C29.9621 34.0667 29.6788 33.85 29.2455 33.85H20.6955C20.2621 33.85 19.9788 34.0667 19.8455 34.5L17.9455 40.25C17.7788 40.6833 17.4955 41.05 17.0955 41.35C16.6955 41.65 16.2455 41.8 15.7455 41.8H14.2955C13.4955 41.8 12.8788 41.5 12.4455 40.9C11.9788 40.2334 11.8788 39.5334 12.1455 38.8L21.8455 9.55C22.0121 9.08333 22.2788 8.71667 22.6455 8.45C23.0455 8.15 23.4788 8 23.9455 8H25.9955C26.4621 8 26.8955 8.15 27.2955 8.45C27.6955 8.71667 27.9621 9.08333 28.0955 9.55L37.8455 38.8ZM27.7455 27.3L25.2455 19.65C25.0788 19.4167 24.8955 19.4167 24.6955 19.65L22.1955 27.3C22.1288 27.4667 22.1455 27.6167 22.2455 27.75C22.3455 27.8833 22.4788 27.95 22.6455 27.95H27.2955C27.4621 27.95 27.5955 27.8833 27.6955 27.75C27.7955 27.6167 27.8121 27.4667 27.7455 27.3Z" fill="white"/>
</svg>
