<svg width="50" height="50" viewBox="0 0 50 50" fill="none" xmlns="http://www.w3.org/2000/svg">
<path d="M50 25C50 38.8071 38.8071 50 25 50C11.1929 50 0 38.8071 0 25C0 11.1929 11.1929 0 25 0C38.8071 0 50 11.1929 50 25Z" fill="#006BE5"/>
<path fill-rule="evenodd" clip-rule="evenodd" d="M36.6672 13.3337H13.3338C12.4133 13.3337 11.6672 14.0798 11.6672 15.0003V30.0003C11.6672 30.9208 12.4133 31.6669 13.3338 31.6669H36.6672C37.5876 31.6669 38.3338 30.9208 38.3338 30.0003V15.0003C38.3338 14.0798 37.5876 13.3337 36.6672 13.3337ZM13.3338 11.667C11.4929 11.667 10.0005 13.1594 10.0005 15.0003V30.0003C10.0005 31.8412 11.4929 33.3336 13.3338 33.3336H36.6672C38.5081 33.3336 40.0005 31.8412 40.0005 30.0003V15.0003C40.0005 13.1594 38.5081 11.667 36.6672 11.667H13.3338Z" fill="white"/>
<path fill-rule="evenodd" clip-rule="evenodd" d="M25.0003 32.4983C25.4606 32.4983 25.8337 32.8713 25.8337 33.3316V38.3316C25.8337 38.7919 25.4606 39.165 25.0003 39.165C24.54 39.165 24.167 38.7919 24.167 38.3316V33.3316C24.167 32.8713 24.54 32.4983 25.0003 32.4983Z" fill="white"/>
<path fill-rule="evenodd" clip-rule="evenodd" d="M32.4976 38.3333C32.4976 38.7936 32.1245 39.1667 31.6642 39.1667H18.3309C17.8708 39.1667 17.4976 38.7936 17.4976 38.3333C17.4976 37.8731 17.8708 37.5 18.3309 37.5H31.6642C32.1245 37.5 32.4976 37.8731 32.4976 38.3333Z" fill="white"/>
<path fill-rule="evenodd" clip-rule="evenodd" d="M10.8306 28.3324C10.8306 27.8721 11.2037 27.499 11.6639 27.499H38.3306C38.7908 27.499 39.164 27.8721 39.164 28.3324C39.164 28.7925 38.7908 29.1657 38.3306 29.1657H11.6639C11.2037 29.1657 10.8306 28.7925 10.8306 28.3324Z" fill="white"/>
<path fill-rule="evenodd" clip-rule="evenodd" d="M21.6631 23.9559C21.0442 24.7745 20.8317 25.7777 20.8317 26.4295V26.6676C20.8317 27.1278 21.2049 27.5009 21.665 27.5009H28.3317C28.792 27.5009 29.165 27.1278 29.165 26.6676V26.4295C29.165 25.7777 28.9525 24.7745 28.3336 23.9559C27.7449 23.1771 26.7435 22.5009 24.9984 22.5009C23.2532 22.5009 22.2518 23.1771 21.6631 23.9559ZM20.3336 22.9508C21.2449 21.7453 22.7435 20.8342 24.9984 20.8342C27.2532 20.8342 28.7518 21.7453 29.6631 22.9508C30.5442 24.1162 30.8317 25.494 30.8317 26.4295V26.6676C30.8317 28.0483 29.7124 29.1676 28.3317 29.1676H21.665C20.2843 29.1676 19.165 28.0483 19.165 26.6676V26.4295C19.165 25.494 19.4525 24.1162 20.3336 22.9508Z" fill="white"/>
<path fill-rule="evenodd" clip-rule="evenodd" d="M25.0008 19.9995C25.9212 19.9995 26.6675 19.2533 26.6675 18.3328C26.6675 17.4123 25.9212 16.6662 25.0008 16.6662C24.0803 16.6662 23.3341 17.4123 23.3341 18.3328C23.3341 19.2533 24.0803 19.9995 25.0008 19.9995ZM25.0008 21.6662C26.8418 21.6662 28.3341 20.1737 28.3341 18.3328C28.3341 16.4919 26.8418 14.9995 25.0008 14.9995C23.1598 14.9995 21.6675 16.4919 21.6675 18.3328C21.6675 20.1737 23.1598 21.6662 25.0008 21.6662Z" fill="white"/>
</svg>
